<svg width="18" height="18" fill="none" xmlns="http://www.w3.org/2000/svg"><g clip-path="url(#clip0_2_228)"><path d="M14.4 0H3.6A3.6 3.6 0 000 3.6v10.8A3.6 3.6 0 003.6 18h10.8a3.6 3.6 0 003.6-3.6V3.6A3.6 3.6 0 0014.4 0zm.208 7.33l-5.569 5.568c-.307.308-.71.461-1.113.461-.402 0-.806-.153-1.113-.461l-3.421-3.42A1.576 1.576 0 015.619 7.25l2.307 2.306 4.455-4.455a1.575 1.575 0 012.227 2.228z" fill="#485982"/></g><defs><clipPath id="clip0_2_228"><path fill="#fff" d="M0 0h18v18H0z"/></clipPath></defs></svg>